<?xml version="1.0" ?><!DOCTYPE svg  PUBLIC '-//W3C//DTD SVG 1.1//EN'  'http://www.w3.org/Graphics/SVG/1.1/DTD/svg11.dtd'><svg height="43.3492mm" style="shape-rendering:geometricPrecision; text-rendering:geometricPrecision; image-rendering:optimizeQuality; fill-rule:evenodd; clip-rule:evenodd" version="1.1" viewBox="0 0 261 261" width="43.3492mm" xml:space="preserve" xmlns="http://www.w3.org/2000/svg" xmlns:xlink="http://www.w3.org/1999/xlink"><defs><style type="text/css">
   <![CDATA[
    .fil2 {fill:#FEFEFE}
    .fil4 {fill:#1A82B7}
    .fil0 {fill:#20A0E1}
    .fil3 {fill:#ABBDD5}
    .fil1 {fill:#CCD8E6}
   ]]>
  </style></defs><g id="Layer_x0020_1"><g id="_445047880"><rect class="fil0" height="261" rx="28" ry="28" width="261"/><g><path class="fil1" d="M172 100c1,-2 3,-2 3,-5 -4,0 -7,3 -9,4l-67 42 13 41c2,-2 2,-4 2,-8 0,-2 1,-6 1,-8l0 -7c1,-1 1,-2 1,-4 0,-1 0,-2 0,-3 1,-2 2,-1 3,-3 15,-16 36,-34 53,-49z"/><path class="fil2" d="M66 129l33 12 70 -44c2,-1 4,-2 6,-2 0,3 -4,6 -6,8 -15,13 -40,32 -53,47l12 9c2,0 7,5 8,6 2,1 10,7 11,9 2,0 2,1 3,2l10 7c4,3 8,8 15,3l22 -100c3,-17 -5,-14 -16,-10l-112 45c-4,2 -8,7 -3,8z"/><path class="fil3" d="M112 182l1 1c2,0 4,-1 6,-3l17 -15c-1,-1 -6,-6 -8,-6l-12 -9 -4 32z"/></g><path class="fil4" d="M261 139l-65 -65c2,2 2,5 1,12l-22 100c-7,5 -11,0 -15,-3l-10 -7c-1,-1 -1,-2 -3,-2 -1,-2 -9,-8 -11,-9l-17 15c-2,1 -4,2 -6,3l79 78 41 0 28 -28 0 -94z"/><polygon class="fil4" points="66,129 109,173 99,141 "/></g></g></svg>